PathFileType	4	(X/Y/Z)	C:\Users\dbl\Desktop\20210112\20210112\bx_n_0_901.trc
DataRate	CameraRate	NumFrames	NumMarkers	Units	OrigDataRate	OrigDataStartFrame	OrigNumFrames
50.00	50.00	       4	43	mm	50.00	139	       370
Frame#	Time	Top.Head			R.Acromium			L.Acromium			Sternum			R.ASIS			L.ASIS			V.Sacral			R.Thigh.Upper			R.Thigh.Front			R.Thigh.Rear			R.Knee.Lat			R.Knee.Med			R.Shank.Upper			R.Shank.Front			R.Shank.Rear			R.Ankle.Lat			R.Midfoot.Lat			R.Toe.Lat			R.Toe.Tip			R.Toe.Med			R.Ankle.Med			R.Midfoot.Sup			R.Heel			L.Thigh.Upper			L.Thigh.Front			L.Thigh.Rear			L.Knee.Lat			L.Knee.Med			L.Shank.Upper			L.Shank.Front			L.Shank.Rear			L.Ankle.Lat			L.Midfoot.Lat			L.Toe.Lat			L.Toe.Tip			L.Toe.Med			L.Ankle.Med			L.Midfoot.Sup			L.Heel			origin1 front left			origin2 front right			origin 3 back right			origin 4 back leftt			
		X1	Y1	Z1	X2	Y2	Z2	X3	Y3	Z3	X4	Y4	Z4	X5	Y5	Z5	X6	Y6	Z6	X7	Y7	Z7	X8	Y8	Z8	X9	Y9	Z9	X10	Y10	Z10	X11	Y11	Z11	X12	Y12	Z12	X13	Y13	Z13	X14	Y14	Z14	X15	Y15	Z15	X16	Y16	Z16	X17	Y17	Z17	X18	Y18	Z18	X19	Y19	Z19	X20	Y20	Z20	X21	Y21	Z21	X22	Y22	Z22	X23	Y23	Z23	X24	Y24	Z24	X25	Y25	Z25	X26	Y26	Z26	X27	Y27	Z27	X28	Y28	Z28	X29	Y29	Z29	X30	Y30	Z30	X31	Y31	Z31	X32	Y32	Z32	X33	Y33	Z33	X34	Y34	Z34	X35	Y35	Z35	X36	Y36	Z36	X37	Y37	Z37	X38	Y38	Z38	X39	Y39	Z39	X40	Y40	Z40	X41	Y41	Z41	X42	Y42	Z42	X43	Y43	Z43	

139	2.760	-156.69260	113.06846	1548.02283	-386.10751	-84.49610	1346.94714	-398.31519	271.44290	1345.28223	-468.63196	90.40124	1151.45935	-688.56927	-20.29111	1015.78644	-683.78278	224.21683	1033.81445	-869.14294	82.11423	1098.79858	-767.88330	-84.17493	870.70093	-681.59338	-18.39442	805.53088	-770.55005	-74.44073	752.63025	-769.44995	-44.24408	611.82654	-753.38843	66.43918	570.52246	-770.76251	-40.90952	565.83484	-716.18896	9.22816	524.71472	-801.54626	-54.25758	481.52383	-761.92474	-23.87898	205.27177	-647.95856	-68.17157	161.32118	-605.32971	-72.49555	156.96471	-549.48212	-21.95753	161.98225	-601.07428	28.76889	167.05666	-675.60687	51.73129	161.37917	-725.38806	65.31699	219.49918	-794.62708	35.24644	174.90459	-779.93372	275.73364	874.39807	-678.74573	207.02493	796.29004	-768.80029	268.81180	740.53174	-790.23193	249.80644	635.26642	-749.13904	137.08438	572.04785	-777.41010	242.95348	572.37720	-721.91516	197.82327	537.20789	-805.59918	258.26556	495.27078	-766.88971	229.40950	204.40067	-652.12280	291.53418	156.94881	-614.90454	296.95490	158.55649	-552.94977	240.94104	165.15733	-589.83069	206.75549	173.27667	-718.21075	151.43781	219.32660	-676.35645	168.41251	160.35654	-796.36401	182.51384	183.31958	-528.16138	303.68451	146.32237	-517.86792	-72.92088	143.15593	-875.86078	-78.66802	141.11858	-882.60529	296.08743	144.64278	
140	2.780	-147.88000	112.81934	1533.05200	-380.35257	-84.53067	1335.83118	-392.75626	271.20276	1334.57971	-467.72198	90.26891	1142.42249	-691.02972	-20.97989	1013.63776	-685.76611	223.41191	1031.40942	-870.47394	81.63467	1099.81348	-770.57874	-84.50344	870.44318	-684.05890	-18.54363	805.39789	-772.85364	-74.75110	752.38983	-771.19458	-44.43459	611.65393	-755.18829	66.15324	570.39172	-772.38104	-41.13437	565.68732	-717.63715	9.00242	524.85962	-802.79431	-54.44815	481.31317	-761.98889	-23.94975	205.23602	-647.99658	-68.28043	161.25687	-605.23688	-72.60845	156.90842	-549.41144	-21.87600	162.02802	-601.08606	28.72431	167.09196	-675.72528	51.66790	161.47211	-725.51129	65.15818	219.44447	-794.66473	35.08300	174.93617	-782.59583	275.47314	874.34583	-681.11560	206.80278	796.20026	-770.91376	268.73505	740.41125	-792.26904	249.67807	634.92218	-750.60309	136.82181	571.88983	-778.91956	242.72722	572.12561	-723.26306	197.58870	537.27136	-806.77032	257.99368	494.99826	-766.95618	229.38165	204.37257	-652.11542	291.51291	156.99860	-614.93793	296.93661	158.53830	-552.97546	240.98932	165.12157	-589.75299	206.69601	173.28755	-718.28796	151.49385	219.33444	-676.40424	168.47295	160.39456	-796.39612	182.53185	183.27071	-528.14471	303.73819	146.35477	-517.88666	-72.91637	143.14262	-875.84058	-78.63638	141.10741	-882.60626	296.06100	144.61235	
141	2.800	-139.38831	112.61360	1517.89185	-374.83026	-84.53154	1324.49194	-387.45929	270.95947	1323.78052	-466.87695	90.16489	1133.27551	-693.47809	-21.84190	1011.57782	-687.65247	222.56462	1028.96350	-871.72626	81.27190	1100.85876	-773.35370	-84.86448	870.10870	-686.72723	-18.72959	805.25165	-775.15228	-75.21600	752.12128	-772.85840	-44.58385	611.53650	-756.78223	65.98081	570.33582	-773.88300	-41.28900	565.52832	-718.99255	8.85108	525.02496	-803.92822	-54.57039	481.14984	-761.98096	-23.97370	205.22971	-647.99341	-68.32554	161.19177	-605.14233	-72.73565	156.88008	-549.33600	-21.82019	162.00159	-601.09766	28.68068	167.09917	-675.81982	51.62325	161.57568	-725.55829	65.08539	219.46230	-794.68524	34.98355	175.00554	-784.99341	275.24847	874.26422	-683.25153	206.56569	796.12134	-772.84467	268.61136	740.26611	-794.06042	249.57118	634.60718	-751.93011	136.47606	571.80969	-780.22589	242.48001	571.90778	-724.48260	197.32393	537.28809	-807.80475	257.78796	494.79199	-766.96704	229.37857	204.36522	-652.07703	291.47049	157.07654	-614.94824	296.92883	158.54106	-552.97784	241.01147	165.09354	-589.70984	206.64456	173.25719	-718.43011	151.51971	219.33701	-676.42938	168.49516	160.38760	-796.42249	182.54533	183.24464	-528.11548	303.81702	146.38313	-517.88104	-72.92971	143.16241	-875.84869	-78.62647	141.12630	-882.59473	296.04218	144.60205	
142	2.820	-131.23669	112.47967	1502.52380	-369.52081	-84.53299	1312.98474	-382.37891	270.66138	1312.88342	-465.96747	90.02485	1124.05725	-695.93744	-22.88792	1009.72339	-689.49774	221.72797	1026.55762	-872.89972	80.98801	1101.97180	-776.12891	-85.20728	869.68451	-689.44891	-18.94812	805.16400	-777.31250	-75.75121	751.85846	-774.41724	-44.71191	611.46466	-758.18481	65.91309	570.34497	-775.26727	-41.38931	565.35760	-720.23181	8.77080	525.16522	-804.97430	-54.63795	480.97705	-761.95422	-23.96824	205.24457	-647.95105	-68.29003	161.14969	-605.07678	-72.86533	156.84221	-549.24548	-21.77809	161.89107	-601.10925	28.66202	167.07690	-675.86389	51.60320	161.66365	-725.59497	65.06010	219.49384	-794.66907	34.96568	175.07822	-787.21082	275.06168	874.13843	-685.25256	206.26494	796.09766	-774.63318	268.48737	740.03815	-795.61078	249.46368	634.33185	-753.18939	136.13002	571.78143	-781.35840	242.24333	571.76422	-725.59882	197.08203	537.29895	-808.70282	257.68597	494.65659	-766.93713	229.39929	204.37155	-652.02826	291.42773	157.14262	-614.93738	296.90781	158.56801	-552.97278	240.99385	165.08649	-589.73914	206.62674	173.19987	-718.65283	151.52264	219.32103	-676.43878	168.49001	160.37581	-796.43958	182.56410	183.24364	-528.08887	303.87970	146.39294	-517.84955	-72.95721	143.20557	-875.86987	-78.62189	141.16383	-882.56824	296.04074	144.61757	
